<svg xmlns="http://www.w3.org/2000/svg" viewBox="0 0 300 200" class="w-full h-full">
  <defs>
    <linearGradient id="bg2" x1="0%" y1="0%" x2="100%" y2="100%">
      <stop offset="0%" style="stop-color:#10B981;stop-opacity:1" />
      <stop offset="100%" style="stop-color:#059669;stop-opacity:1" />
    </linearGradient>
  </defs>
  
  <!-- Background -->
  <rect width="300" height="200" fill="url(#bg2)"/>
  
  <!-- Clipboard -->
  <rect x="100" y="30" width="100" height="140" rx="8" fill="#FFFFFF"/>
  <rect x="105" y="35" width="90" height="130" rx="4" fill="#F9FAFB"/>
  
  <!-- Clipboard Header -->
  <rect x="130" y="20" width="40" height="20" rx="4" fill="#E5E7EB"/>
  <rect x="135" y="25" width="30" height="10" rx="2" fill="#6B7280"/>
  
  <!-- Form Fields -->
  <rect x="115" y="55" width="70" height="8" rx="4" fill="#E5E7EB"/>
  <rect x="115" y="70" width="50" height="8" rx="4" fill="#E5E7EB"/>
  <rect x="115" y="85" width="60" height="8" rx="4" fill="#E5E7EB"/>
  
  <!-- Checkboxes -->
  <rect x="115" y="105" width="10" height="10" rx="2" fill="#10B981"/>
  <path d="M118 108 L120 110 L123 107" stroke="#FFFFFF" stroke-width="1.5" fill="none"/>
  <rect x="130" y="105" width="45" height="8" rx="4" fill="#E5E7EB"/>
  
  <rect x="115" y="120" width="10" height="10" rx="2" fill="#10B981"/>
  <path d="M118 123 L120 125 L123 122" stroke="#FFFFFF" stroke-width="1.5" fill="none"/>
  <rect x="130" y="120" width="40" height="8" rx="4" fill="#E5E7EB"/>
  
  <rect x="115" y="135" width="10" height="10" rx="2" fill="#E5E7EB"/>
  <rect x="130" y="135" width="35" height="8" rx="4" fill="#E5E7EB"/>
  
  <!-- Submit Button -->
  <rect x="115" y="155" width="70" height="12" rx="6" fill="#10B981"/>
  
  <!-- Person Icon -->
  <circle cx="50" cy="70" r="12" fill="#FFFFFF" opacity="0.9"/>
  <circle cx="50" cy="67" r="4" fill="#10B981"/>
  <path d="M42 75 Q50 72 58 75 L58 78 L42 78 Z" fill="#10B981"/>
  
  <!-- Stats -->
  <circle cx="50" cy="100" r="3" fill="#FFFFFF"/>
  <rect x="47" y="105" width="6" height="15" fill="#FFFFFF" opacity="0.8"/>
  <rect x="45" y="125" width="10" height="3" rx="1" fill="#FFFFFF" opacity="0.8"/>
  
  <!-- Health Icon -->
  <circle cx="50" cy="140" r="8" fill="#FFFFFF" opacity="0.9"/>
  <path d="M46 140 L50 136 L54 140 L50 144 Z" fill="#10B981"/>
</svg>
