<svg xmlns="http://www.w3.org/2000/svg" viewBox="0 0 300 200" class="w-full h-full">
  <defs>
    <linearGradient id="bg6" x1="0%" y1="0%" x2="100%" y2="100%">
      <stop offset="0%" style="stop-color:#06B6D4;stop-opacity:1" />
      <stop offset="100%" style="stop-color:#3B82F6;stop-opacity:1" />
    </linearGradient>
  </defs>
  
  <!-- Background -->
  <rect width="300" height="200" fill="url(#bg6)"/>
  
  <!-- Book -->
  <rect x="100" y="40" width="100" height="120" rx="4" fill="#FFFFFF"/>
  <rect x="105" y="45" width="90" height="110" rx="2" fill="#F9FAFB"/>
  
  <!-- Book Binding -->
  <rect x="100" y="40" width="8" height="120" rx="4" fill="#374151"/>
  
  <!-- Page Content -->
  <rect x="115" y="60" width="70" height="6" rx="3" fill="#6B7280"/>
  <rect x="115" y="70" width="60" height="4" rx="2" fill="#9CA3AF"/>
  <rect x="115" y="78" width="65" height="4" rx="2" fill="#9CA3AF"/>
  <rect x="115" y="86" width="55" height="4" rx="2" fill="#9CA3AF"/>
  
  <!-- Food Image in Book -->
  <rect x="115" y="100" width="30" height="20" rx="4" fill="#E5E7EB"/>
  <circle cx="125" cy="107" r="3" fill="#F59E0B"/>
  <circle cx="130" cy="113" r="2" fill="#10B981"/>
  <circle cx="120" cy="113" r="2" fill="#EF4444"/>
  
  <!-- Text Lines -->
  <rect x="150" y="105" width="30" height="3" rx="1" fill="#9CA3AF"/>
  <rect x="150" y="110" width="25" height="3" rx="1" fill="#9CA3AF"/>
  <rect x="150" y="115" width="28" height="3" rx="1" fill="#9CA3AF"/>
  
  <!-- Nutrition Facts -->
  <rect x="115" y="130" width="70" height="20" rx="4" fill="#E5E7EB"/>
  <rect x="120" y="135" width="20" height="3" rx="1" fill="#06B6D4"/>
  <rect x="120" y="140" width="15" height="3" rx="1" fill="#10B981"/>
  <rect x="120" y="145" width="18" height="3" rx="1" fill="#F59E0B"/>
  
  <!-- Floating Knowledge Icons -->
  <circle cx="60" cy="60" r="15" fill="#FFFFFF" opacity="0.9"/>
  <circle cx="60" cy="57" r="4" fill="#06B6D4"/>
  <rect x="57" y="62" width="6" height="8" fill="#06B6D4"/>
  
  <circle cx="240" cy="80" r="12" fill="#FFFFFF" opacity="0.9"/>
  <path d="M235 80 Q240 75 245 80 Q240 85 235 80" fill="#10B981"/>
  
  <circle cx="50" cy="120" r="10" fill="#FFFFFF" opacity="0.9"/>
  <rect x="47" y="118" width="6" height="4" rx="1" fill="#F59E0B"/>
  
  <circle cx="250" cy="130" r="14" fill="#FFFFFF" opacity="0.9"/>
  <circle cx="250" cy="127" r="3" fill="#EF4444"/>
  <rect x="248" y="132" width="4" height="6" fill="#EF4444"/>
  
  <!-- Diet Types -->
  <rect x="40" y="160" width="220" height="25" rx="12" fill="#FFFFFF" opacity="0.9"/>
  <rect x="50" y="167" width="25" height="11" rx="5" fill="#06B6D4"/>
  <rect x="80" y="167" width="30" height="11" rx="5" fill="#10B981"/>
  <rect x="115" y="167" width="35" height="11" rx="5" fill="#F59E0B"/>
  <rect x="155" y="167" width="28" height="11" rx="5" fill="#EF4444"/>
  <rect x="188" y="167" width="32" height="11" rx="5" fill="#8B5CF6"/>
  <rect x="225" y="167" width="25" height="11" rx="5" fill="#EC4899"/>
  
  <!-- Reading Glasses -->
  <circle cx="40" cy="40" r="8" fill="#FFFFFF" opacity="0.8"/>
  <circle cx="40" cy="40" r="6" fill="none" stroke="#374151" stroke-width="1"/>
  <circle cx="55" cy="40" r="8" fill="#FFFFFF" opacity="0.8"/>
  <circle cx="55" cy="40" r="6" fill="none" stroke="#374151" stroke-width="1"/>
  <line x1="48" y1="40" x2="47" y2="40" stroke="#374151" stroke-width="1"/>
</svg>
