<svg xmlns="http://www.w3.org/2000/svg" viewBox="0 0 300 200" class="w-full h-full">
  <defs>
    <linearGradient id="bg7" x1="0%" y1="0%" x2="100%" y2="100%">
      <stop offset="0%" style="stop-color:#059669;stop-opacity:1" />
      <stop offset="100%" style="stop-color:#10B981;stop-opacity:1" />
    </linearGradient>
  </defs>
  
  <!-- Background -->
  <rect width="300" height="200" fill="url(#bg7)"/>
  
  <!-- Main Chart Area -->
  <rect x="50" y="40" width="200" height="120" rx="8" fill="#FFFFFF"/>
  <rect x="55" y="45" width="190" height="110" rx="4" fill="#F9FAFB"/>
  
  <!-- Chart Header -->
  <rect x="55" y="45" width="190" height="25" rx="4" fill="#10B981"/>
  <circle cx="70" cy="57" r="4" fill="#FFFFFF"/>
  <rect x="80" y="54" width="40" height="6" rx="3" fill="#FFFFFF"/>
  
  <!-- Y-Axis Labels -->
  <rect x="60" y="80" width="15" height="3" rx="1" fill="#9CA3AF"/>
  <rect x="60" y="90" width="15" height="3" rx="1" fill="#9CA3AF"/>
  <rect x="60" y="100" width="15" height="3" rx="1" fill="#9CA3AF"/>
  <rect x="60" y="110" width="15" height="3" rx="1" fill="#9CA3AF"/>
  <rect x="60" y="120" width="15" height="3" rx="1" fill="#9CA3AF"/>
  <rect x="60" y="130" width="15" height="3" rx="1" fill="#9CA3AF"/>
  
  <!-- Progress Line Chart -->
  <polyline points="80,130 100,125 120,120 140,115 160,110 180,108 200,105 220,100" 
            stroke="#10B981" stroke-width="3" fill="none"/>
  
  <!-- Data Points -->
  <circle cx="80" cy="130" r="3" fill="#10B981"/>
  <circle cx="100" cy="125" r="3" fill="#10B981"/>
  <circle cx="120" cy="120" r="3" fill="#10B981"/>
  <circle cx="140" cy="115" r="3" fill="#10B981"/>
  <circle cx="160" cy="110" r="3" fill="#10B981"/>
  <circle cx="180" cy="108" r="3" fill="#10B981"/>
  <circle cx="200" cy="105" r="3" fill="#10B981"/>
  <circle cx="220" cy="100" r="3" fill="#059669"/>
  
  <!-- X-Axis Labels -->
  <rect x="75" y="140" width="10" height="3" rx="1" fill="#9CA3AF"/>
  <rect x="95" y="140" width="10" height="3" rx="1" fill="#9CA3AF"/>
  <rect x="115" y="140" width="10" height="3" rx="1" fill="#9CA3AF"/>
  <rect x="135" y="140" width="10" height="3" rx="1" fill="#9CA3AF"/>
  <rect x="155" y="140" width="10" height="3" rx="1" fill="#9CA3AF"/>
  <rect x="175" y="140" width="10" height="3" rx="1" fill="#9CA3AF"/>
  <rect x="195" y="140" width="10" height="3" rx="1" fill="#9CA3AF"/>
  <rect x="215" y="140" width="10" height="3" rx="1" fill="#9CA3AF"/>
  
  <!-- Goal Line -->
  <line x1="80" y1="105" x2="220" y2="105" stroke="#F59E0B" stroke-width="2" stroke-dasharray="5,5"/>
  
  <!-- Stats Cards -->
  <rect x="20" y="30" width="25" height="30" rx="4" fill="#FFFFFF" opacity="0.9"/>
  <circle cx="32" cy="40" r="4" fill="#10B981"/>
  <rect x="25" y="47" width="15" height="4" rx="2" fill="#6B7280"/>
  <rect x="25" y="53" width="10" height="3" rx="1" fill="#9CA3AF"/>
  
  <rect x="255" y="30" width="25" height="30" rx="4" fill="#FFFFFF" opacity="0.9"/>
  <circle cx="267" cy="40" r="4" fill="#F59E0B"/>
  <rect x="260" y="47" width="15" height="4" rx="2" fill="#6B7280"/>
  <rect x="260" y="53" width="10" height="3" rx="1" fill="#9CA3AF"/>
  
  <!-- BMI Indicator -->
  <rect x="20" y="70" width="25" height="40" rx="4" fill="#FFFFFF" opacity="0.9"/>
  <rect x="25" y="80" width="15" height="8" rx="4" fill="#10B981"/>
  <rect x="27" y="90" width="11" height="3" rx="1" fill="#6B7280"/>
  <rect x="27" y="95" width="8" height="3" rx="1" fill="#9CA3AF"/>
  <rect x="27" y="100" width="9" height="3" rx="1" fill="#9CA3AF"/>
  
  <!-- Achievement Badges -->
  <circle cx="270" cy="80" r="12" fill="#FFFFFF" opacity="0.9"/>
  <circle cx="270" cy="80" r="8" fill="#F59E0B"/>
  <path d="M266 80 L270 76 L274 80 L270 84 Z" fill="#FFFFFF"/>
  
  <circle cx="270" cy="110" r="12" fill="#FFFFFF" opacity="0.9"/>
  <circle cx="270" cy="110" r="8" fill="#10B981"/>
  <path d="M267 110 L269 112 L273 108" stroke="#FFFFFF" stroke-width="2" fill="none"/>
  
  <circle cx="270" cy="140" r="12" fill="#FFFFFF" opacity="0.9"/>
  <circle cx="270" cy="140" r="8" fill="#8B5CF6"/>
  <rect x="267" y="138" width="6" height="4" rx="1" fill="#FFFFFF"/>
  
  <!-- Trend Arrow -->
  <path d="M30 170 L40 160 L35 165 L45 165 L45 170 L35 170 L40 175 Z" fill="#10B981"/>
  
  <!-- Calendar Progress -->
  <rect x="60" y="165" width="180" height="25" rx="12" fill="#FFFFFF" opacity="0.9"/>
  <circle cx="75" cy="177" r="4" fill="#10B981"/>
  <circle cx="90" cy="177" r="4" fill="#10B981"/>
  <circle cx="105" cy="177" r="4" fill="#10B981"/>
  <circle cx="120" cy="177" r="4" fill="#F59E0B"/>
  <circle cx="135" cy="177" r="4" fill="#10B981"/>
  <circle cx="150" cy="177" r="4" fill="#10B981"/>
  <circle cx="165" cy="177" r="4" fill="#E5E7EB"/>
  <circle cx="180" cy="177" r="4" fill="#E5E7EB"/>
  <circle cx="195" cy="177" r="4" fill="#E5E7EB"/>
  <circle cx="210" cy="177" r="4" fill="#E5E7EB"/>
  <circle cx="225" cy="177" r="4" fill="#E5E7EB"/>
</svg>
